<svg width="23" height="21" viewBox="0 0 23 21" fill="none" xmlns="http://www.w3.org/2000/svg">
<path d="M21.7994 8.98049L17.1844 13.4721L18.2733 19.821C18.3177 20.1022 18.2066 20.376 17.977 20.5462C17.8511 20.6424 17.6955 20.6868 17.5399 20.6868C17.4214 20.6868 17.3029 20.6572 17.1918 20.6054L11.4878 17.6085L5.78388 20.6054C5.53202 20.7386 5.23571 20.7164 5.00607 20.5462C4.77643 20.3834 4.66532 20.1022 4.70976 19.821L5.7987 13.4721L1.1911 8.98049C0.991088 8.7807 0.917011 8.49211 1.0059 8.22572C1.0948 7.95933 1.32444 7.75954 1.60593 7.72254L7.98397 6.79758L10.8359 1.02582C11.0878 0.522643 11.9175 0.522643 12.1619 1.02582L15.0139 6.79758L21.3919 7.72254C21.6734 7.76694 21.9031 7.95933 21.992 8.22572C22.0809 8.49211 22.0068 8.7807 21.7994 8.98049Z" fill="#FAAF38"/>
</svg>
